<svg width="24" height="30" viewBox="0 0 24 30" fill="none" xmlns="http://www.w3.org/2000/svg">
<path d="M3.71156 13.8407L5.15554 14.5013C5.25952 14.2951 5.31351 14.0693 5.31351 13.8407H3.71156ZM1.60194 18.0224L0.157969 17.3618C0.0311799 17.6132 -0.020852 17.8928 0.00755593 18.1705L1.60194 18.0224ZM4.64245 21.8238L5.32594 20.4442C5.28316 20.4248 5.23952 20.4076 5.19514 20.3921L4.64245 21.8238ZM12.1522 23.4509L12.143 24.9763H12.1611L12.1522 23.4509ZM19.6617 21.8238L19.0006 20.4342L18.9782 20.4442L19.6617 21.8238ZM21.8963 20.1682L23.1456 21.1231C23.2084 21.0486 23.2637 20.9687 23.3107 20.8843L21.8963 20.1682ZM21.6464 15.9316L20.1805 16.5466C20.2208 16.6339 20.2698 16.7175 20.3264 16.796L21.6464 15.9316ZM20.4406 11.52L22.0353 11.3756C22.0336 11.3591 22.0317 11.3427 22.0296 11.3262L20.4406 11.52ZM12.1522 28.4746L12.1299 29.9998C12.1447 30.0001 12.1594 30.0001 12.1742 29.9998L12.1522 28.4746ZM12.15 1.82441C8.7086 1.82441 6.10688 3.24519 4.42704 5.55548C2.79856 7.79513 2.10961 10.7587 2.10961 13.8407H5.31351C5.31351 11.1322 5.92823 8.85032 7.06118 7.29217C8.14277 5.80465 9.76033 4.87526 12.15 4.87526V1.82441ZM2.26759 13.1801L0.157969 17.3618L3.04592 18.683L5.15554 14.5013L2.26759 13.1801ZM0.00755593 18.1705C0.243 20.4706 1.8165 22.4598 4.08975 23.2554L5.19514 20.3921C4.10906 20.0118 3.31588 19.0422 3.19633 17.8743L0.00755593 18.1705ZM3.95897 23.2034C6.52499 24.3562 9.31542 24.9611 12.143 24.9763L12.1611 21.9255C9.8022 21.9128 7.47198 21.4082 5.32594 20.4442L3.95897 23.2034ZM12.1611 24.9763C14.9889 24.9611 17.7791 24.3562 20.3452 23.2034L18.9782 20.4442C16.8322 21.4082 14.5019 21.9128 12.143 21.9255L12.1611 24.9763ZM20.3227 23.2133C21.4215 22.7392 22.3875 22.0223 23.1456 21.1231L20.647 19.2133C20.2003 19.7433 19.6358 20.1602 19.0006 20.4342L20.3227 23.2133ZM23.3107 20.8843C24.3404 19.0402 24.2091 16.7878 22.9662 15.0671L20.3264 16.796C20.8898 17.576 20.9522 18.6094 20.4819 19.452L23.3107 20.8843ZM23.1123 15.3165C22.5356 14.0701 22.1716 12.7387 22.0353 11.3756L18.8457 11.6644C19.0143 13.3513 19.4649 15.0004 20.1805 16.5466L23.1123 15.3165ZM22.0296 11.3262C21.6884 8.78989 20.7852 6.42302 19.1392 4.66601C17.4548 2.86782 15.0965 1.82441 12.15 1.82441V4.87526C14.2285 4.87526 15.7012 5.57897 16.7485 6.69689C17.8342 7.85599 18.5638 9.57421 18.8515 11.7139L22.0296 11.3262ZM13.752 3.34984V0H10.5481V3.34984H13.752ZM5.93562 28.0363C7.746 29.2843 9.90536 29.9706 12.1299 29.9998L12.1742 26.9494C10.6153 26.9289 9.0952 26.448 7.81424 25.5651L5.93562 28.0363ZM12.1742 29.9998C14.3987 29.9706 16.5582 29.2843 18.3686 28.0363L16.4898 25.5651C15.2089 26.448 13.689 26.9289 12.1299 26.9494L12.1742 29.9998Z" fill="url(#paint0_linear_3117_4553)"/>
<defs>
<linearGradient id="paint0_linear_3117_4553" x1="24" y1="15" x2="0" y2="15" gradientUnits="userSpaceOnUse">
<stop stop-color="#950606"/>
<stop offset="1" stop-color="#3C0404"/>
</linearGradient>
</defs>
</svg>
