<svg width="30" height="24" viewBox="0 0 30 24" fill="none" xmlns="http://www.w3.org/2000/svg">
<path d="M13.75 17C13.75 16.3096 14.3096 15.75 15 15.75C15.6904 15.75 16.25 16.3096 16.25 17C16.25 17.6904 15.6904 18.25 15 18.25C14.3096 18.25 13.75 17.6904 13.75 17ZM13.75 7C13.75 6.30964 14.3096 5.75 15 5.75C15.6904 5.75 16.25 6.30964 16.25 7V13.25C16.25 13.9404 15.6904 14.5 15 14.5C14.3096 14.5 13.75 13.9404 13.75 13.25V7ZM15 0.75C12.0163 0.75 9.15483 1.93526 7.04505 4.04505C4.93526 6.15483 3.75 9.01631 3.75 12C3.75 14.9837 4.93526 17.8452 7.04505 19.955C9.15483 22.0647 12.0163 23.25 15 23.25C17.9837 23.25 20.8452 22.0647 22.955 19.955C25.0647 17.8452 26.25 14.9837 26.25 12C26.25 9.01631 25.0647 6.15483 22.955 4.04505C20.8452 1.93526 17.9837 0.75 15 0.75ZM24.9459 21.9459C25.3202 22.3202 25.9302 22.32 26.2776 21.9206C28.5923 19.2605 30 15.7931 30 12C30 8.20694 28.5923 4.73955 26.2776 2.07937C25.9302 1.68004 25.3202 1.6798 24.9459 2.05409C24.5748 2.42519 24.5761 3.02427 24.9185 3.42201C26.9135 5.73953 28.125 8.72602 28.125 12C28.125 15.2852 26.9135 18.2625 24.9186 20.5781C24.5761 20.9757 24.5748 21.5748 24.9459 21.9459ZM5.05409 21.9459C5.42519 21.5748 5.4239 20.9757 5.08136 20.5781C3.08645 18.2625 1.875 15.2852 1.875 12C1.875 8.72602 3.08651 5.73953 5.0815 3.42201C5.42389 3.02427 5.42519 2.42519 5.05409 2.05409C4.6798 1.6798 4.06983 1.68004 3.72237 2.07937C1.40773 4.73955 0 8.20694 0 12C0 15.7931 1.40773 19.2604 3.72237 21.9206C4.06983 22.32 4.6798 22.3202 5.05409 21.9459Z" fill="#F8F8F8"/>
</svg>
