<svg width="32" height="32" viewBox="0 0 32 32" fill="none" xmlns="http://www.w3.org/2000/svg">
<path fill-rule="evenodd" clip-rule="evenodd" d="M16.3733 4.95434C16.1298 4.88344 15.8711 4.88344 15.6275 4.95434C15.5575 4.97476 15.4343 5.02582 15.1723 5.22418C14.8969 5.4328 14.5595 5.73136 14.0339 6.19857L7.04774 12.4085C6.19127 13.1698 5.94847 13.3994 5.77967 13.6533C5.6173 13.8976 5.49634 14.1669 5.42166 14.4505C5.34402 14.7454 5.33375 15.0793 5.33375 16.2253V22.8933C5.33375 24.0546 5.33483 24.8441 5.38547 25.454C5.43479 26.048 5.52415 26.3512 5.63399 26.5625C5.88699 27.0496 6.28411 27.4468 6.77116 27.6997C6.98259 27.8096 7.28578 27.8989 7.8797 27.9482C8.48956 27.9989 9.27906 28 10.4404 28H10.6671V24C10.6671 21.0545 13.0549 18.6666 16.0005 18.6666C18.9459 18.6666 21.3338 21.0545 21.3338 24V28H21.5605C22.7218 28 23.5113 27.9989 24.1211 27.9482C24.715 27.8989 25.0182 27.8096 25.2297 27.6997C25.7167 27.4468 26.1138 27.0496 26.3669 26.5625C26.4767 26.3512 26.5661 26.048 26.6154 25.454C26.6659 24.8441 26.6671 24.0546 26.6671 22.8933V16.2253C26.6671 15.0793 26.6569 14.7454 26.5791 14.4505C26.5045 14.1669 26.3835 13.8976 26.2211 13.6533C26.0523 13.3994 25.8095 13.1698 24.9531 12.4085L17.9669 6.19857C17.4413 5.73136 17.1039 5.4328 16.8285 5.22418C16.5665 5.02582 16.4433 4.97476 16.3733 4.95434ZM14.8819 2.39404C15.6125 2.18132 16.3883 2.18132 17.1189 2.39404C17.6257 2.54165 18.0459 2.80122 18.4381 3.09813C18.8074 3.37776 19.2234 3.74748 19.7023 4.17322L26.7247 10.4154C26.7626 10.449 26.7998 10.4822 26.8367 10.5149C27.5323 11.1325 28.0577 11.5991 28.4419 12.177C28.7666 12.6655 29.0086 13.2042 29.1579 13.7716C29.3346 14.4426 29.3343 15.1453 29.3338 16.0754C29.3338 16.1248 29.3338 16.1746 29.3338 16.2253V22.9493C29.3338 24.0406 29.3338 24.9414 29.2729 25.6748C29.2097 26.4365 29.0738 27.1364 28.7333 27.7918C28.2273 28.766 27.433 29.5601 26.459 30.0661C25.8034 30.4066 25.1037 30.5425 24.3418 30.6057C23.6085 30.6666 22.7078 30.6666 21.6164 30.6666H21.0738C21.0634 30.6666 21.053 30.6666 21.0423 30.6666C20.8809 30.6666 20.6881 30.6668 20.5182 30.6526C20.3213 30.6364 20.0394 30.5944 19.7451 30.4414C19.3798 30.2517 19.0819 29.9538 18.8922 29.5886C18.7394 29.2942 18.6974 29.0124 18.681 28.8154C18.6669 28.6457 18.667 28.4528 18.667 28.2913L18.6671 24C18.6671 22.5272 17.4731 21.3333 16.0005 21.3333C14.5277 21.3333 13.3337 22.5272 13.3337 24L13.3338 28.2913C13.3338 28.4528 13.3339 28.6457 13.3198 28.8154C13.3034 29.0124 13.2614 29.2942 13.1086 29.5886C12.9188 29.9538 12.621 30.2517 12.2557 30.4414C11.9614 30.5944 11.6795 30.6364 11.4826 30.6526C11.3128 30.6668 11.1199 30.6666 10.9584 30.6666C10.9479 30.6666 10.9374 30.6666 10.9271 30.6666H10.3845C9.29307 30.6666 8.39234 30.6666 7.65899 30.6057C6.89719 30.5425 6.1974 30.4066 5.54188 30.0661C4.56779 29.5601 3.77355 28.766 3.26755 27.7918C2.92704 27.1364 2.79122 26.4365 2.72795 25.6748C2.66706 24.9414 2.66707 24.0406 2.66708 22.9493V16.2253C2.66708 16.1746 2.66706 16.1248 2.66704 16.0754C2.66655 15.1453 2.66619 14.4426 2.84288 13.7716C2.99226 13.2042 3.23419 12.6655 3.55894 12.177C3.9431 11.5991 4.46855 11.1325 5.16411 10.5149C5.20096 10.4822 5.23828 10.449 5.2761 10.4154L12.2985 4.17324C12.7775 3.74748 13.1934 3.37776 13.5627 3.09813C13.9549 2.80122 14.3751 2.54165 14.8819 2.39404Z" fill="#C9C9CA"/>
</svg>
