<svg width="12" height="18" viewBox="0 0 12 18" fill="none" xmlns="http://www.w3.org/2000/svg">
<g clip-path="url(#clip0_237_7627)">
<path d="M3.30859 13.334C3.8061 13.9974 4.25893 14.6963 4.6638 15.4254C5.00945 16.1112 5.15355 16.5762 5.40616 17.4025C5.56108 17.859 5.70109 17.9953 6.00213 17.9953C6.33016 17.9953 6.47898 17.7635 6.59397 17.405C6.83275 16.6247 7.02011 16.0291 7.3157 15.4664C7.89574 14.3801 8.61648 13.4147 9.32467 12.4869C9.51639 12.2243 10.756 10.6945 11.314 9.48739C11.314 9.48739 11.9999 8.16143 11.9999 6.30958C11.9999 4.57737 11.3235 3.37598 11.3235 3.37598L9.37605 3.92167L8.19339 7.18084L7.9008 7.63025L7.8423 7.71167L7.76448 7.81359L7.62789 7.97637L7.4327 8.18055L6.37956 9.0783L3.74659 10.669L3.30859 13.334Z" fill="#5D5D60"/>
<path d="M0.591309 9.26434C1.23392 10.8001 2.47311 12.1502 3.31151 13.3349L7.76468 7.81556C7.76468 7.81556 7.13731 8.67407 5.99928 8.67407C4.73164 8.67407 3.70756 7.61491 3.70756 6.27938C3.70756 5.36354 4.23415 4.73438 4.23415 4.73438L1.21123 5.5819L0.591309 9.26434Z" fill="#FBBC04"/>
<path d="M7.81442 0.28418C9.29342 0.783128 10.5593 1.83061 11.325 3.37523L7.76604 7.81284C7.76604 7.81284 8.29264 7.17229 8.29264 6.26214C8.29264 4.89551 7.19281 3.87457 6.00467 3.87457C4.88112 3.87457 4.23584 4.73165 4.23584 4.73165V1.93601L7.81442 0.28418Z" fill="#4285F4"/>
<path d="M1.40698 2.24461C2.29034 1.13876 3.84472 0 5.98765 0C7.02734 0 7.81062 0.285597 7.81062 0.285597L4.23237 4.73376H1.69714L1.40698 2.24461Z" fill="#1A73E8"/>
<path d="M0.591188 9.26399C0.591188 9.26399 0 8.05265 0 6.29777C0 4.63917 0.616219 3.18936 1.40695 2.24414L4.23436 4.73368L0.591188 9.26399Z" fill="#EA4335"/>
</g>
<defs>
<clipPath id="clip0_237_7627">
<rect width="12" height="18" fill="white"/>
</clipPath>
</defs>
</svg>
