<svg width="240" height="240" viewBox="0 0 240 240" fill="none" xmlns="http://www.w3.org/2000/svg">
<path d="M63.0407 192.93C63.4744 193.348 64.0425 193.501 64.2867 194.139C63.5735 194.295 63.1055 193.846 62.6212 193.574C55.2164 189.416 49.0939 183.811 44.0514 177.006C35.9094 166.02 31.1157 153.656 28.8962 140.22C27.9527 134.508 27.3919 128.77 27.4995 122.983C27.7698 108.446 30.7905 94.5514 37.5312 81.5902C41.8317 73.321 47.4717 66.0887 54.7477 60.1939C54.9683 60.0151 55.2084 59.8583 55.4509 59.7102C55.4953 59.6831 55.5956 59.7475 55.8105 59.8116C54.5541 61.3593 53.3275 62.8593 52.113 64.369C50.2611 66.6707 48.6193 69.1182 47.078 71.6359C46.7796 72.1234 46.581 72.6025 46.9796 73.1085C48.877 75.5168 50.7835 77.9178 52.9034 80.5951C57.4887 72.3254 63.1368 65.2446 70.5877 59.7027C65.3127 65.8618 60.8668 72.5305 57.3418 80.2297C59.6665 79.4759 61.64 78.8424 63.6092 78.1955C65.6713 77.518 67.7205 76.7997 69.7926 76.1549C70.7898 75.8446 71.4609 75.2816 71.9981 74.3693C75.8847 67.769 80.4758 61.7053 86.0666 56.447C95.4802 47.5932 106.369 41.5637 119.221 39.3874C122.78 38.7848 126.374 38.5309 129.986 38.5853C130.23 38.589 130.477 38.6121 130.716 38.6598C130.818 38.6802 130.903 38.7867 131.222 39.0173C129.553 39.2336 128.098 39.4172 126.645 39.6115C117.686 40.8089 109.447 43.9562 101.865 48.8368C90.4856 56.1615 82.1192 66.1919 75.8273 78.0498C71.5968 86.0229 68.5932 94.4512 66.828 103.301C64.8303 113.316 64.2549 123.405 65.1564 133.603C66.0325 143.515 68.2694 153.081 72.051 162.255C78.6183 178.188 88.5948 191.392 103.384 200.644C104.267 201.196 105.29 201.556 105.888 202.489C89.8069 195.626 78.3228 183.857 70.1975 168.699C69.655 168.654 69.5593 168.962 69.4216 169.198C67.8703 171.849 66.3559 174.523 64.7583 177.146C64.2795 177.932 64.3069 178.478 64.8484 179.222C68.7796 184.622 73.2743 189.468 78.6166 193.504C78.858 193.686 79.2461 193.769 79.2076 194.216C78.7413 194.482 78.4377 194.1 78.1079 193.92C71.8125 190.487 66.3948 185.974 61.7344 180.541C61.2714 180.001 60.7926 179.558 60.0921 179.322C56.095 177.975 52.1089 176.596 48.1173 175.232C47.9681 175.182 47.8008 175.184 47.6314 175.16C48.0678 177.96 57.1956 188.486 63.0407 192.93ZM58.5264 144.474C59.1361 143.812 59.7395 143.145 60.3578 142.491C60.7562 142.07 60.8416 141.629 60.7348 141.04C59.8531 136.17 59.2438 131.268 59.1688 126.31C59.1611 125.799 59.1933 125.243 58.7283 124.881C58.2447 124.908 57.9579 125.226 57.6342 125.465C55.0357 127.382 52.4951 129.385 49.8221 131.192C48.6297 131.998 48.389 132.926 48.5505 134.192C49.0675 138.243 49.6323 142.287 50.5222 146.275C50.8995 147.965 51.1721 149.696 51.9403 151.521C54.3144 149.236 56.3206 146.879 58.5264 144.474ZM33.7369 119.283C36.5482 121.617 39.3595 123.951 42.3208 126.409C42.3765 125.764 42.4411 125.402 42.434 125.041C42.3262 119.502 42.7553 114.001 43.6406 108.535C43.7379 107.934 43.4356 107.51 43.1441 107.07C42.0575 105.432 40.9669 103.796 39.8645 102.169C38.777 100.563 37.6735 98.9688 36.4622 97.202C36.3162 97.6021 36.2506 97.743 36.2129 97.891C34.5299 104.497 33.6928 111.227 33.2832 118.018C33.2583 118.432 33.2621 118.844 33.7369 119.283ZM56.1037 154.093C55.638 154.609 55.2222 155.185 54.6961 155.63C53.6653 156.502 53.614 157.421 54.0729 158.664C55.5071 162.547 57.1298 166.341 59.1085 169.976C59.7585 171.17 60.2823 172.465 61.2985 173.507C61.4763 173.314 61.6083 173.211 61.6882 173.077C63.5335 169.985 65.3612 166.883 67.2254 163.803C67.5401 163.283 67.365 162.883 67.1676 162.428C65.2122 157.916 63.6254 153.277 62.3646 148.525C62.2959 148.266 62.2795 147.946 61.8083 147.848C59.9684 149.862 58.0947 151.913 56.1037 154.093ZM58.5728 118.895C59.0849 118.579 59.18 118.092 59.2285 117.529C59.5268 114.066 59.8265 110.604 60.363 107.164C60.5576 105.917 61.0296 104.673 60.8449 103.329C59.9647 103.449 59.3205 103.82 58.6562 104.123C55.8988 105.379 53.1647 106.689 50.3859 107.896C49.4537 108.301 48.948 108.84 48.842 109.862C48.3089 114.998 47.9055 120.138 48.048 125.308C48.057 125.634 48.0414 125.973 48.6015 126.311C51.8223 123.916 55.1247 121.461 58.5728 118.895ZM64.2518 91.2148C65.2535 88.1316 66.5873 85.1699 67.7729 82.1971C67.3168 81.9133 67.0378 81.984 66.7651 82.075C63.0015 83.3296 59.2432 84.6005 55.4715 85.8303C54.8239 86.0415 54.6093 86.5013 54.3972 87.0497C53.0077 90.6428 51.9271 94.333 51.0441 98.076C50.6929 99.5645 50.1844 101.045 50.1953 102.574C50.4716 102.726 50.6647 102.679 50.855 102.591C54.496 100.911 58.136 99.2281 61.7785 97.5511C62.2647 97.3273 62.5 96.9554 62.6476 96.4444C63.1353 94.755 63.6697 93.0792 64.2518 91.2148ZM44.6386 144.796C43.893 141.402 43.2733 137.986 42.9729 134.523C42.8827 133.482 42.5429 132.679 41.7095 131.999C39.3329 130.061 37.0137 128.053 34.6565 126.091C34.3015 125.795 33.9928 125.356 33.3909 125.406C33.1644 125.788 33.2547 126.203 33.2616 126.598C33.3635 132.413 34.066 138.161 35.1735 143.867C35.3225 144.635 35.6696 145.107 36.3226 145.472C39.1078 147.025 41.8782 148.606 44.6608 150.165C45.0003 150.355 45.3362 150.641 45.9356 150.426C45.5134 148.624 45.0892 146.813 44.6386 144.796ZM54.8557 170.982C52.4509 167.161 50.514 163.105 48.8675 158.909C48.5396 158.073 48.0778 157.453 47.2655 157.003C44.2242 155.318 41.2201 153.566 38.1918 151.858C37.864 151.673 37.5432 151.338 37.0215 151.554C37.0582 151.75 37.0786 151.944 37.1317 152.13C38.6678 157.486 40.5661 162.703 43.0517 167.701C43.451 168.504 43.9828 168.957 44.8184 169.233C48.0804 170.308 51.3234 171.441 54.5798 172.533C54.9358 172.653 55.3064 172.949 55.7981 172.601C55.5137 172.108 55.232 171.619 54.8557 170.982ZM43.4913 78.0771C41.7964 81.3558 40.5171 84.8134 39.0666 88.1981C38.1319 90.3791 38.3362 92.0494 39.8031 93.8999C41.5983 96.1644 43.1119 98.652 44.7411 101.034C45.1977 100.8 45.2736 100.455 45.3504 100.159C46.6262 95.2353 48.2582 90.4358 50.3349 85.7908C50.5027 85.4155 50.5152 85.1025 50.2489 84.77C48.3805 82.4362 46.5224 80.0942 44.6532 77.7611C44.2169 77.2166 43.8428 77.2992 43.4913 78.0771Z" fill="black"/>
<path d="M155.567 63.2867C148.862 59.2259 141.716 57.0077 133.925 57.1337C124.405 57.2876 116.131 60.7794 108.835 66.7401C100.98 73.1585 95.5161 81.3399 91.542 90.5778C88.0984 98.5826 86.1575 106.966 85.3994 115.634C84.162 129.782 86.0232 143.466 91.4679 156.631C95.0946 165.4 100.299 173.063 107.356 179.422C113.336 184.81 120.249 188.416 128.235 189.663C132.935 190.397 137.711 190.222 142.463 190.293C151.597 190.429 160.731 190.616 169.864 190.834C178.338 191.037 186.812 191.287 195.284 191.555C201.096 191.739 206.905 191.988 212.715 192.214C212.95 192.223 213.183 192.282 213.493 192.33C213.225 192.964 212.729 192.828 212.334 192.841C206.686 193.022 201.036 193.152 195.389 193.37C183.028 193.847 170.665 194.197 158.296 194.369C150.35 194.48 142.405 194.664 134.46 194.822C121.819 195.072 111.145 190.385 102.012 181.867C94.0866 174.476 88.6989 165.439 84.8892 155.378C82.13 148.091 80.5458 140.552 79.8375 132.807C79.1144 124.899 79.3207 117.007 80.6767 109.199C82.8351 96.7709 87.1844 85.171 94.8387 75.0206C101.098 66.7207 108.749 60.0422 118.734 56.6194C133.375 51.6011 146.718 54.3631 158.783 63.8797C161.333 65.8911 163.606 68.1849 165.745 70.6189C165.903 70.7993 166.104 70.9693 165.991 71.5712C162.691 68.4682 159.421 65.5672 155.567 63.2867Z" fill="#BE0202"/>
<path d="M142.869 199.599C154.851 199.936 166.71 200.279 178.722 200.878C178.217 201.667 177.594 201.429 177.092 201.447C169.478 201.722 161.862 201.927 154.25 202.245C146.924 202.551 139.594 202.722 132.264 202.861C117.721 203.138 105.56 197.595 95.2696 187.585C85.461 178.043 79.089 166.453 75.1547 153.449C72.8232 145.743 71.4337 137.871 70.9555 129.818C70.151 116.271 71.9826 103.098 76.487 90.3261C80.691 78.4057 87.0485 67.791 96.4157 59.1607C104.323 51.8759 113.487 46.9877 124.222 45.5183C134.654 44.0903 144.433 46.217 153.471 51.641C154.805 52.441 156.091 53.3199 157.384 54.1851C157.766 54.4412 158.216 54.6676 158.393 55.1979C157.846 55.3634 157.553 55.0072 157.23 54.8101C148.888 49.7236 139.88 47.1653 130.077 47.7725C122.788 48.224 116.038 50.4765 109.798 54.2449C99.9121 60.2146 92.7791 68.7128 87.2895 78.7393C82.2524 87.9394 79.2465 97.807 77.6129 108.109C76.2729 116.559 76.1315 125.054 76.9763 133.581C78.2908 146.847 81.9842 159.354 88.7257 170.886C92.6852 177.659 97.6472 183.6 103.782 188.564C109.516 193.204 115.884 196.482 123.05 198.227C126.174 198.987 129.367 199.149 132.551 199.317C135.945 199.496 139.348 199.511 142.869 199.599Z" fill="#BE0202"/>
</svg>
