<svg width="882" height="723" viewBox="0 0 882 723" fill="none" xmlns="http://www.w3.org/2000/svg">
<g id="No Results">
<g id="circle">
<path id="Stroke 1" d="M29.9355 332.461V339.937" stroke="#5D5D60" stroke-width="2.921" stroke-linecap="round"/>
<g id="Group 8">
<path id="Stroke 2" d="M13.1426 336.492L19.2516 342.781" stroke="#5D5D60" stroke-width="2.921" stroke-linecap="round"/>
<path id="Stroke 4" d="M6 353.227H14.6381" stroke="#5D5D60" stroke-width="2.921" stroke-linecap="round"/>
<path id="Stroke 6" d="M12.4453 370.273L18.5544 363.984" stroke="#5D5D60" stroke-width="2.921" stroke-linecap="round"/>
</g>
<path id="Stroke 9" d="M29.9355 372.328V364.852" stroke="#5D5D60" stroke-width="2.921" stroke-linecap="round"/>
<path id="Stroke 10" d="M42.3962 367.351L37.4121 362.367" stroke="#5D5D60" stroke-width="2.921" stroke-linecap="round"/>
<path id="Stroke 11" d="M52.3648 354.891H44.8887" stroke="#5D5D60" stroke-width="2.921" stroke-linecap="round"/>
<path id="Stroke 12" d="M47.3825 337.43L42.3984 342.414" stroke="#5D5D60" stroke-width="2.921" stroke-linecap="round"/>
<path id="Stroke 13" d="M431.156 6V10.9841" stroke="#5D5D60" stroke-width="2.921" stroke-linecap="round"/>
<path id="Stroke 15" d="M416.203 20.9531H421.187" stroke="#5D5D60" stroke-width="2.921" stroke-linecap="round"/>
<path id="Stroke 16" d="M431.156 35.8981V30.9141" stroke="#5D5D60" stroke-width="2.921" stroke-linecap="round"/>
<path id="Stroke 17" d="M443.617 20.9531H438.633" stroke="#5D5D60" stroke-width="2.921" stroke-linecap="round"/>
<path id="Stroke 18" d="M142.078 215.32V222.796" stroke="#5D5D60" stroke-width="2.921" stroke-linecap="round"/>
<path id="Stroke 19" d="M119.648 237.75H127.125" stroke="#5D5D60" stroke-width="2.921" stroke-linecap="round"/>
<path id="Stroke 20" d="M142.078 257.695V250.219" stroke="#5D5D60" stroke-width="2.921" stroke-linecap="round"/>
<path id="Stroke 21" d="M162.017 237.75H154.541" stroke="#5D5D60" stroke-width="2.921" stroke-linecap="round"/>
<g id="Group 42">
<path id="Stroke 22" d="M678.491 487.078C684.446 487.078 689.276 491.909 689.276 497.866C689.276 503.826 684.446 508.655 678.491 508.655C672.535 508.655 667.705 503.826 667.705 497.866" stroke="#5D5D60" stroke-width="2.921" stroke-linecap="round"/>
<path id="Fill 26" fill-rule="evenodd" clip-rule="evenodd" d="M727.857 389.202C734.261 387.204 744.078 379.372 746.35 370.945C748.411 378.394 757.049 387.204 764.843 387.871C756.069 390.977 747.681 400.206 746.35 407.456C745.445 400.066 733.843 390.279 727.857 389.202Z" fill="#5D5D60"/>
<path id="Fill 28" fill-rule="evenodd" clip-rule="evenodd" d="M70.4824 483.736C73.6855 482.738 78.5917 478.823 79.7278 474.609C80.7581 478.332 85.0761 482.738 88.9731 483.072C84.5874 484.623 80.3942 489.239 79.7278 492.864C79.275 489.169 73.4739 484.274 70.4824 483.736Z" fill="#5D5D60"/>
<path id="Fill 30" fill-rule="evenodd" clip-rule="evenodd" d="M129.923 137.084C129.923 141.706 126.179 145.449 121.56 145.449C116.94 145.449 113.197 141.706 113.197 137.084C113.197 132.464 116.94 128.719 121.56 128.719C126.179 128.719 129.923 132.464 129.923 137.084Z" fill="#5D5D60"/>
<path id="Fill 32" fill-rule="evenodd" clip-rule="evenodd" d="M688.374 159.552C688.374 167.274 682.114 173.534 674.396 173.534C666.674 173.534 660.416 167.274 660.416 159.552C660.416 151.83 666.674 145.57 674.396 145.57C682.114 145.57 688.374 151.83 688.374 159.552Z" fill="#5D5D60"/>
<path id="Fill 34" fill-rule="evenodd" clip-rule="evenodd" d="M881.996 121.646C881.996 127.772 877.033 132.737 870.91 132.737C864.786 132.737 859.822 127.772 859.822 121.646C859.822 115.519 864.786 110.555 870.91 110.555C877.033 110.555 881.996 115.519 881.996 121.646Z" fill="#5D5D60"/>
<path id="Stroke 36" fill-rule="evenodd" clip-rule="evenodd" d="M286.222 639.664C286.222 643.526 283.093 646.656 279.232 646.656C275.373 646.656 272.244 643.526 272.244 639.664C272.244 635.802 275.373 632.672 279.232 632.672C283.093 632.672 286.222 635.802 286.222 639.664Z" stroke="#5D5D60" stroke-width="2.921" stroke-linecap="round"/>
<path id="Stroke 38" fill-rule="evenodd" clip-rule="evenodd" d="M282.062 83.3419C282.062 87.9636 278.317 91.7072 273.699 91.7072C269.081 91.7072 265.336 87.9636 265.336 83.3419C265.336 78.7222 269.081 74.9766 273.699 74.9766C278.317 74.9766 282.062 78.7222 282.062 83.3419Z" stroke="#5D5D60" stroke-width="2.921" stroke-linecap="round"/>
<path id="Stroke 40" fill-rule="evenodd" clip-rule="evenodd" d="M495.391 717.068C490.047 719.101 484.066 716.416 482.033 711.073C480 705.727 482.683 699.743 488.029 697.711C493.371 695.677 499.352 698.361 501.385 703.706C503.42 709.052 500.735 715.034 495.391 717.068Z" stroke="#5D5D60" stroke-width="2.921" stroke-linecap="round"/>
</g>
</g>
<g id="search">
<g id="documents">
<path id="Fill 1" fill-rule="evenodd" clip-rule="evenodd" d="M492.202 519.378H287.843C273.459 519.378 261.686 507.569 261.686 493.137V201.711C261.686 187.279 273.459 175.477 287.843 175.477H492.202C506.592 175.477 518.365 187.279 518.365 201.711V493.137C518.365 507.569 506.592 519.378 492.202 519.378Z" fill="#5D5D60"/>
<path id="Fill 3" fill-rule="evenodd" clip-rule="evenodd" d="M474.759 531.847H270.4C256.016 531.847 244.242 520.038 244.242 505.606V214.18C244.242 199.748 256.016 187.945 270.4 187.945H474.759C489.148 187.945 500.922 199.748 500.922 214.18V505.606C500.922 520.038 489.148 531.847 474.759 531.847Z" fill="#E8EBF2"/>
<path id="Fill 5" fill-rule="evenodd" clip-rule="evenodd" d="M457.792 541.673H253.011C238.597 541.673 226.799 529.913 226.799 515.54V225.322C226.799 210.949 238.597 199.195 253.011 199.195H457.792C472.211 199.195 484.009 210.949 484.009 225.322V515.54C484.009 529.913 472.211 541.673 457.792 541.673Z" fill="#D8DBEA"/>
<path id="Fill 8" fill-rule="evenodd" clip-rule="evenodd" d="M457.792 541.673H253.011C238.597 541.673 226.799 529.913 226.799 515.54V225.322C226.799 210.949 238.597 199.195 253.011 199.195H457.792C472.211 199.195 484.009 210.949 484.009 225.322V515.54C484.009 529.913 472.211 541.673 457.792 541.673Z" fill="#F1F2F7"/>
<path id="Fill 11" fill-rule="evenodd" clip-rule="evenodd" d="M428.273 287.624H277.017C272.698 287.624 269.162 284.26 269.162 280.151C269.162 276.036 272.698 272.672 277.017 272.672H428.273C432.593 272.672 436.129 276.036 436.129 280.151C436.129 284.26 432.593 287.624 428.273 287.624Z" fill="#5D5D60"/>
<path id="Fill 13" fill-rule="evenodd" clip-rule="evenodd" d="M428.273 332.483H277.017C272.698 332.483 269.162 329.12 269.162 325.01C269.162 320.895 272.698 317.531 277.017 317.531H428.273C432.593 317.531 436.129 320.895 436.129 325.01C436.129 329.12 432.593 332.483 428.273 332.483Z" fill="#5D5D60"/>
<path id="Fill 15" fill-rule="evenodd" clip-rule="evenodd" d="M428.273 377.343H277.017C272.698 377.343 269.162 373.979 269.162 369.87C269.162 365.76 272.698 362.391 277.017 362.391H428.273C432.593 362.391 436.129 365.76 436.129 369.87C436.129 373.979 432.593 377.343 428.273 377.343Z" fill="#5D5D60"/>
<path id="Fill 17" fill-rule="evenodd" clip-rule="evenodd" d="M428.273 422.179H277.017C272.698 422.179 269.162 418.815 269.162 414.705C269.162 410.59 272.698 407.227 277.017 407.227H428.273C432.593 407.227 436.129 410.59 436.129 414.705C436.129 418.815 432.593 422.179 428.273 422.179Z" fill="#5D5D60"/>
<path id="Fill 19" fill-rule="evenodd" clip-rule="evenodd" d="M355.971 467.038H277.051C272.713 467.038 269.162 463.674 269.162 459.565C269.162 455.45 272.713 452.086 277.051 452.086H355.971C360.309 452.086 363.86 455.45 363.86 459.565C363.86 463.674 360.309 467.038 355.971 467.038Z" fill="#5D5D60"/>
</g>
<g id="search_2">
<path id="Fill 21" fill-rule="evenodd" clip-rule="evenodd" d="M515.263 409.069C485.018 439.309 438.195 442.721 404.202 419.373C399.857 416.336 395.722 412.925 391.866 409.069C389.881 407.091 388.01 405.049 386.247 402.9C382.721 398.607 379.633 394.029 377.102 389.298C372.644 381.309 369.612 372.831 367.957 364.068C362.617 336.586 370.602 307.006 391.866 285.751C413.182 264.432 442.767 256.5 470.254 261.788C479.012 263.494 487.498 266.525 495.489 270.932C500.226 273.519 504.742 276.607 509.042 280.133C511.185 281.889 513.227 283.766 515.206 285.751C519.068 289.606 522.531 293.734 525.512 298.084C548.87 332.065 545.451 378.887 515.263 409.069Z" fill="white" fill-opacity="0.1"/>
<path id="Fill 23" fill-rule="evenodd" clip-rule="evenodd" d="M506.798 403.11C475.332 434.581 424.339 434.575 392.867 403.11C361.436 371.679 361.436 320.68 392.908 289.214C424.339 257.783 475.332 257.783 506.762 289.214C538.228 320.68 538.228 371.679 506.798 403.11ZM522.945 273.058C482.556 232.668 417.107 232.668 376.717 273.058C336.334 313.441 336.299 378.932 376.682 419.321C413.441 456.068 471.056 459.382 511.58 429.211C515.539 426.259 519.35 422.951 522.986 419.321C526.617 415.685 529.925 411.873 532.87 407.915C563.042 367.385 559.699 309.811 522.945 273.058Z" fill="#5D5D60"/>
<path id="Fill 25" fill-rule="evenodd" clip-rule="evenodd" d="M681.899 571.565L680.203 573.26C668.985 584.484 650.615 584.484 639.392 573.26L535.811 469.679L578.318 427.172L681.899 530.753C693.123 541.977 693.123 560.341 681.899 571.565Z" fill="url(#paint0_linear_3805_6857)"/>
<path id="Fill 27" fill-rule="evenodd" clip-rule="evenodd" d="M535.105 404.742L565.714 435.351L543.984 457.075L513.381 426.466C517.42 423.455 521.303 420.079 525.02 416.375C528.724 412.671 532.1 408.781 535.105 404.742Z" fill="#5D5D60"/>
<path id="Fill 29" fill-rule="evenodd" clip-rule="evenodd" d="M680.351 529.492L638.114 571.724L630.51 564.114L672.741 521.883L680.351 529.492Z" fill="#EF545F"/>
<path id="Fill 31" fill-rule="evenodd" clip-rule="evenodd" d="M580.665 428.626L537.271 472.02L530.824 465.574L574.218 422.18L580.665 428.626Z" fill="url(#paint1_linear_3805_6857)"/>
<path id="Fill 33" fill-rule="evenodd" clip-rule="evenodd" d="M485.972 278.408L379.553 384.821C375.545 377.638 372.82 370.017 371.338 362.138L463.288 270.188C471.161 271.727 478.788 274.446 485.972 278.408Z" fill="white" fill-opacity="0.5"/>
<path id="Fill 35" fill-rule="evenodd" clip-rule="evenodd" d="M520.859 303.695L405.809 412.227C401.689 409.515 397.767 406.462 394.11 403.012C392.228 401.236 390.447 399.414 388.781 397.491L505.233 287.625C507.272 289.202 509.209 290.882 511.085 292.658C514.742 296.108 518.032 299.802 520.859 303.695Z" fill="white" fill-opacity="0.5"/>
</g>
</g>
</g>
<defs>
<linearGradient id="paint0_linear_3805_6857" x1="613.064" y1="349.919" x2="458.557" y2="504.425" gradientUnits="userSpaceOnUse">
<stop stop-color="#FF8960"/>
<stop offset="1" stop-color="#FF62A5"/>
</linearGradient>
<linearGradient id="paint1_linear_3805_6857" x1="555.745" y1="397.259" x2="505.904" y2="447.1" gradientUnits="userSpaceOnUse">
<stop stop-color="#FF404E"/>
<stop offset="1" stop-color="#FF62A5"/>
</linearGradient>
</defs>
</svg>
