<svg width="24" height="24" viewBox="0 0 24 24" fill="none" xmlns="http://www.w3.org/2000/svg">
<path fill-rule="evenodd" clip-rule="evenodd" d="M14.8015 19.8322C15.4179 19.7704 15.8344 20.4247 15.5432 20.9544C15.338 21.3276 15.0488 21.6534 14.7024 21.9202C14.3491 22.1923 13.9392 22.4011 13.4995 22.5413C13.0596 22.6817 12.5925 22.7527 12.1237 22.7527C11.6549 22.7527 11.1878 22.6817 10.7479 22.5413C10.3082 22.4011 9.89834 22.1923 9.54507 21.9202C9.19861 21.6534 8.90939 21.3276 8.70423 20.9544C8.41305 20.4247 8.82953 19.7704 9.44595 19.8322C9.6382 19.8515 11.1428 19.9986 12.1237 19.9986C13.1046 19.9986 14.6092 19.8515 14.8015 19.8322Z" fill="#0E0E0E"/>
<path fill-rule="evenodd" clip-rule="evenodd" d="M8.52901 2.0895C10.7932 1.0064 13.4465 0.969555 15.7423 1.98932L15.9475 2.08046C18.3532 3.14902 19.8934 5.46415 19.8934 8.01155V9.27492C19.8934 10.2905 20.1236 11.2938 20.5681 12.215L20.8335 12.7652C22.0525 15.292 20.465 18.2455 17.6156 18.7518L17.455 18.7803C13.93 19.4065 10.3154 19.4065 6.79044 18.7803C3.90274 18.2673 2.37502 15.1963 3.77239 12.7135L3.99943 12.3102C4.55987 11.3144 4.85335 10.2001 4.85335 9.06791V7.79428C4.85335 5.37635 6.27704 3.16673 8.52901 2.0895Z" fill="#0E0E0E"/>
</svg>
