<svg width="24" height="21" viewBox="0 0 24 21" fill="none" xmlns="http://www.w3.org/2000/svg">
<path d="M20.705 7.90427C20.705 5.33541 19.3434 3.99201 16.7565 3.99201H4.53857V3.76509C4.53857 1.89519 5.49167 0.951172 7.37987 0.951172H21.1498C23.0469 0.951172 24 1.89519 24 3.76509V13.3233C24 15.1932 23.0469 16.1281 21.1498 16.1281H20.705V7.90427ZM16.6112 20.5033H2.85021C0.962229 20.5033 0 19.5593 0 17.6894V8.04043C0 6.17957 0.962229 5.23556 2.85021 5.23556H16.6112C18.5174 5.23556 19.4614 6.17053 19.4614 8.04043V17.6894C19.4614 19.5593 18.5174 20.5033 16.6112 20.5033ZM13.1347 12.7696C14.2965 12.7696 15.2406 11.8256 15.2406 10.6637C15.2406 9.5109 14.2965 8.5578 13.1347 8.5578C11.9819 8.5578 11.0379 9.5109 11.0379 10.6637C11.0379 11.8256 11.9819 12.7696 13.1347 12.7696ZM16.7202 19.0419C17.5371 19.0419 18 18.579 18 17.7529V17.0086L16.4206 15.5654C15.6127 14.8392 15.1498 14.34 14.5144 14.34C13.8609 14.34 13.3344 14.8573 12.5083 15.5744L11.6551 16.3369L8.6778 13.6592C7.68844 12.7605 7.0257 12.1524 6.23602 12.1524C5.4372 12.1524 4.75641 12.7424 3.78527 13.6592L1.46156 15.8649V17.7529C1.46156 18.579 1.93354 19.0419 2.7504 19.0419H16.7202Z" fill="#232326"/>
</svg>
