<svg width="32" height="32" viewBox="0 0 32 32" fill="none" xmlns="http://www.w3.org/2000/svg">
<path d="M8.15967 27.6667C7.14634 27.6667 6.18634 27.2667 5.45301 26.5467C3.95967 25.0534 3.95967 22.64 5.45301 21.1467L12.7997 13.8C12.133 11.2133 12.853 8.42667 14.7463 6.53334C16.653 4.62667 19.453 3.88 22.053 4.58667C22.3997 4.68 22.6663 4.94667 22.7597 5.29334C22.853 5.64 22.7597 6 22.5063 6.25334L19.2397 9.52L19.933 12.0667L22.4797 12.76L25.7463 9.49334C25.9997 9.24 26.373 9.14667 26.7063 9.24C27.053 9.33334 27.3197 9.6 27.413 9.94667C28.1197 12.5467 27.3863 15.3467 25.4663 17.2534C23.573 19.1467 20.7863 19.8667 18.1997 19.2L10.853 26.5467C10.133 27.2667 9.17301 27.6667 8.15967 27.6667ZM19.573 6.36C18.293 6.46667 17.0797 7.02667 16.1463 7.96C14.6263 9.48 14.133 11.7067 14.8663 13.76C14.9997 14.12 14.9063 14.5334 14.6263 14.8L6.85301 22.5734C6.14634 23.28 6.14634 24.44 6.85301 25.1467C7.19967 25.4934 7.65301 25.68 8.14634 25.68C8.62634 25.68 9.09301 25.4934 9.42634 25.1467L17.1997 17.3734C17.4797 17.0934 17.8797 17.0134 18.2397 17.1334C20.293 17.8534 22.5197 17.3734 24.0397 15.8534C24.973 14.92 25.5197 13.7067 25.6397 12.4267L23.4663 14.6C23.213 14.8534 22.8397 14.9467 22.493 14.8534L18.8397 13.8534C18.493 13.76 18.2263 13.4934 18.133 13.1467L17.133 9.49334C17.0397 9.14667 17.133 8.77334 17.3863 8.52L19.5597 6.34667L19.573 6.36Z" fill="#C9C9CA"/>
</svg>
