<svg width="28" height="28" viewBox="0 0 28 28" fill="none" xmlns="http://www.w3.org/2000/svg">
<g clip-path="url(#clip0_1_12776)">
<path d="M4.91915 9.98261C6.52602 8.1808 8.57155 8.71242 10.5211 8.55237C10.3649 7.42767 10.1356 6.61632 9.10616 6.29857C7.47947 5.79648 6.76627 4.06079 7.35031 2.26128C7.9336 0.464089 9.63813 -0.302227 11.2326 0.515922C12.6932 1.26543 13.417 3.20751 12.511 4.67253C11.662 6.04542 12.3741 7.02863 12.7112 8.16278C12.808 8.48839 13.0497 8.59254 13.3347 8.5981C13.5647 8.60259 13.7946 8.61094 14.0246 8.61286C15.8056 8.62777 16.4127 8.04018 16.6573 6.09591C16.7159 5.63026 16.4498 5.34032 16.2655 4.99836C15.4971 3.57289 15.7321 1.87563 16.8291 0.907286C17.9961 -0.122883 19.6872 -0.0250821 20.6997 1.13113C21.7132 2.28862 21.7988 4.13627 20.8984 5.38811C20.6014 5.80108 20.2456 6.18899 19.7851 6.25312C18.6293 6.41407 18.324 7.31859 18.095 8.59894C18.7658 8.59894 19.3711 8.59346 19.9764 8.5999C22.5747 8.62755 24.5096 10.8185 24.515 13.7411C24.5186 15.6668 24.5195 17.5926 24.5147 19.5183C24.5074 22.4706 22.7402 24.6395 20.1253 24.6843C16.0188 24.7547 11.9097 24.7559 7.80337 24.6767C5.3613 24.6296 3.50888 22.3581 3.48763 19.6056C3.47334 17.754 3.51113 15.9016 3.47694 14.0508C3.44794 12.4811 3.88509 11.1474 4.91915 9.98261ZM23.3333 18.6667C23.3333 17.335 23.3548 16.0028 23.3281 14.6719C23.2871 12.6232 21.2638 10.5297 19.4657 10.5C15.8223 10.4398 12.177 10.4409 8.53359 10.5021C6.8184 10.531 4.69414 12.7169 4.66668 14.6535C4.64779 15.9851 4.6559 17.3176 4.6689 18.6494C4.68826 20.6336 6.77223 22.7408 8.53306 22.75C12.1772 22.7691 15.8215 22.7704 19.4657 22.7526C21.1868 22.7442 23.113 20.8372 23.3333 18.6667Z" fill="#C9C9CA"/>
<path d="M17.6066 25.7698C18.1485 26.0425 18.4437 26.4027 18.2684 27.0181C18.1064 27.5868 17.7076 27.8189 17.2073 27.8208C15.0467 27.8292 12.8859 27.8353 10.7253 27.8201C10.1462 27.8161 9.65704 27.5321 9.64014 26.8113C9.62174 26.0262 10.1191 25.7222 10.7485 25.7214C13.007 25.7185 15.2655 25.7357 17.6066 25.7698Z" fill="#C9C9CA"/>
<path d="M25.602 13.0584C25.7661 12.2696 26.1044 12.6019 26.4248 12.7795C28.4215 13.8867 28.4299 20.6037 26.2286 21.5055C26.1091 21.5545 25.9832 21.5837 25.5967 21.7045C25.5967 18.7819 25.5967 15.9662 25.602 13.0584Z" fill="#C9C9CA"/>
<path d="M2.41421 19.7477C2.37363 20.4238 2.51906 21.0171 2.29887 21.5615C0.653695 21.463 0.134428 19.0017 0.153842 16.9061C0.177661 14.335 0.904538 12.8846 2.41428 12.5797C2.41428 14.952 2.41428 17.2968 2.41421 19.7477Z" fill="#C9C9CA"/>
<path d="M8.20526 17.5301C7.85633 16.441 7.974 15.5419 8.74944 14.8591C9.40632 14.2807 10.137 14.207 10.8691 14.6686C11.5933 15.1252 11.9405 15.848 11.8804 16.7862C11.8186 17.7519 11.3083 18.3645 10.5278 18.6241C9.56638 18.9439 8.79248 18.5539 8.20526 17.5301Z" fill="#C9C9CA"/>
<path d="M17.2002 14.6288C18.3595 14.2239 19.2886 14.5278 19.7431 15.478C20.1706 16.372 20.1112 17.2663 19.4958 18.0432C18.8955 18.8011 17.8653 18.926 17.0623 18.4313C16.0917 17.8333 15.5789 15.772 17.2002 14.6288Z" fill="#C9C9CA"/>
</g>
<defs>
<clipPath id="clip0_1_12776">
<rect width="28" height="28" fill="white"/>
</clipPath>
</defs>
</svg>
