<svg width="765" height="723" viewBox="0 0 765 723" fill="none" xmlns="http://www.w3.org/2000/svg">
<g id="No Internet">
<g id="circle">
<path id="Stroke 1" d="M29.9355 332.461V339.937" stroke="#5D5D60" stroke-width="2.921" stroke-linecap="round"/>
<g id="Group 8">
<path id="Stroke 2" d="M13.1426 336.492L19.2516 342.781" stroke="#5D5D60" stroke-width="2.921" stroke-linecap="round"/>
<path id="Stroke 4" d="M6 353.227H14.6381" stroke="#5D5D60" stroke-width="2.921" stroke-linecap="round"/>
<path id="Stroke 6" d="M12.4453 370.273L18.5544 363.984" stroke="#5D5D60" stroke-width="2.921" stroke-linecap="round"/>
</g>
<path id="Stroke 9" d="M29.9355 372.328V364.852" stroke="#5D5D60" stroke-width="2.921" stroke-linecap="round"/>
<path id="Stroke 10" d="M42.3962 367.351L37.4121 362.367" stroke="#5D5D60" stroke-width="2.921" stroke-linecap="round"/>
<path id="Stroke 11" d="M52.3648 354.891H44.8887" stroke="#5D5D60" stroke-width="2.921" stroke-linecap="round"/>
<path id="Stroke 12" d="M47.3825 337.43L42.3984 342.414" stroke="#5D5D60" stroke-width="2.921" stroke-linecap="round"/>
<path id="Stroke 13" d="M431.156 6V10.9841" stroke="#5D5D60" stroke-width="2.921" stroke-linecap="round"/>
<path id="Stroke 15" d="M416.203 20.9531H421.187" stroke="#5D5D60" stroke-width="2.921" stroke-linecap="round"/>
<path id="Stroke 16" d="M431.156 35.8981V30.9141" stroke="#5D5D60" stroke-width="2.921" stroke-linecap="round"/>
<path id="Stroke 17" d="M443.617 20.9531H438.633" stroke="#5D5D60" stroke-width="2.921" stroke-linecap="round"/>
<path id="Stroke 18" d="M142.078 215.32V222.796" stroke="#5D5D60" stroke-width="2.921" stroke-linecap="round"/>
<path id="Stroke 19" d="M119.648 237.75H127.125" stroke="#5D5D60" stroke-width="2.921" stroke-linecap="round"/>
<path id="Stroke 20" d="M142.078 257.695V250.219" stroke="#5D5D60" stroke-width="2.921" stroke-linecap="round"/>
<path id="Stroke 21" d="M162.017 237.75H154.541" stroke="#5D5D60" stroke-width="2.921" stroke-linecap="round"/>
<g id="Group 42">
<path id="Stroke 22" d="M678.491 487.078C684.446 487.078 689.276 491.909 689.276 497.866C689.276 503.826 684.446 508.655 678.491 508.655C672.535 508.655 667.705 503.826 667.705 497.866" stroke="#5D5D60" stroke-width="2.921" stroke-linecap="round"/>
<path id="Stroke 24" d="M727.728 628.887C729.061 638.19 722.604 646.811 713.305 648.144C704.005 649.475 695.386 643.017 694.053 633.716C692.72 624.415 699.177 615.794 708.475 614.461" stroke="#5D5D60" stroke-width="2.921" stroke-linecap="round"/>
<path id="Fill 26" fill-rule="evenodd" clip-rule="evenodd" d="M727.857 389.202C734.261 387.204 744.078 379.372 746.35 370.945C748.411 378.394 757.049 387.204 764.843 387.871C756.069 390.977 747.681 400.206 746.35 407.456C745.445 400.066 733.843 390.279 727.857 389.202Z" fill="#5D5D60"/>
<path id="Fill 28" fill-rule="evenodd" clip-rule="evenodd" d="M70.4824 483.736C73.6855 482.738 78.5917 478.823 79.7278 474.609C80.7581 478.332 85.0761 482.738 88.9731 483.072C84.5874 484.623 80.3942 489.239 79.7278 492.864C79.275 489.169 73.4739 484.274 70.4824 483.736Z" fill="#5D5D60"/>
<path id="Fill 30" fill-rule="evenodd" clip-rule="evenodd" d="M129.923 137.084C129.923 141.706 126.179 145.449 121.56 145.449C116.94 145.449 113.197 141.706 113.197 137.084C113.197 132.464 116.94 128.719 121.56 128.719C126.179 128.719 129.923 132.464 129.923 137.084Z" fill="#5D5D60"/>
<path id="Fill 32" fill-rule="evenodd" clip-rule="evenodd" d="M623.798 662.31C623.798 670.032 617.538 676.291 609.82 676.291C602.098 676.291 595.84 670.032 595.84 662.31C595.84 654.588 602.098 648.328 609.82 648.328C617.538 648.328 623.798 654.588 623.798 662.31Z" fill="#5D5D60"/>
<path id="Fill 34" fill-rule="evenodd" clip-rule="evenodd" d="M757.174 140.091C757.174 146.217 752.211 151.182 746.088 151.182C739.963 151.182 735 146.217 735 140.091C735 133.965 739.963 129 746.088 129C752.211 129 757.174 133.965 757.174 140.091Z" fill="#5D5D60"/>
<path id="Stroke 36" fill-rule="evenodd" clip-rule="evenodd" d="M286.222 639.664C286.222 643.526 283.093 646.656 279.232 646.656C275.373 646.656 272.244 643.526 272.244 639.664C272.244 635.802 275.373 632.672 279.232 632.672C283.093 632.672 286.222 635.802 286.222 639.664Z" stroke="#5D5D60" stroke-width="2.921" stroke-linecap="round"/>
<path id="Stroke 38" fill-rule="evenodd" clip-rule="evenodd" d="M282.062 83.3419C282.062 87.9636 278.317 91.7072 273.699 91.7072C269.081 91.7072 265.336 87.9636 265.336 83.3419C265.336 78.7222 269.081 74.9766 273.699 74.9766C278.317 74.9766 282.062 78.7222 282.062 83.3419Z" stroke="#5D5D60" stroke-width="2.921" stroke-linecap="round"/>
<path id="Stroke 40" fill-rule="evenodd" clip-rule="evenodd" d="M495.391 717.068C490.047 719.101 484.066 716.416 482.033 711.073C480 705.727 482.683 699.743 488.029 697.711C493.371 695.677 499.352 698.361 501.385 703.706C503.42 709.052 500.735 715.034 495.391 717.068Z" stroke="#5D5D60" stroke-width="2.921" stroke-linecap="round"/>
</g>
</g>
<path id="Fill 1" fill-rule="evenodd" clip-rule="evenodd" d="M348.908 544.171H396.705L371.668 623.834L483.199 511.169H416.051L453.609 346.148L348.908 544.171Z" fill="url(#paint0_linear_3805_6919)"/>
<g id="Group 6">
<path id="Fill 2" fill-rule="evenodd" clip-rule="evenodd" d="M634.836 296.087C623.051 287.714 609.292 281.943 594.383 279.64C586.226 208.385 525.737 153.047 452.299 153.047C406.535 153.047 365.8 174.548 339.614 207.999C330.426 204.921 320.617 203.241 310.39 203.241C263.435 203.241 224.714 238.439 219.124 283.886C180.266 295.933 152.051 332.16 152.051 374.968C152.051 427.475 194.49 470.057 246.948 470.303C249.649 470.667 252.395 470.879 255.196 470.879H566.992C572.749 471.958 578.655 472.546 584.723 472.546C637.39 472.546 680.069 429.86 680.069 377.201C680.069 342.925 661.979 312.889 634.836 296.087Z" fill="#F1F2F7"/>
<path id="Fill 4" fill-rule="evenodd" clip-rule="evenodd" d="M369.782 242.069C358.748 237.592 346.469 235.078 333.526 235.078C285.593 235.078 246.75 269.292 246.75 311.49C246.75 315.758 247.157 319.937 247.924 324.007C285.192 271.361 310.872 250.454 369.782 242.069Z" fill="#E0E2EE"/>
</g>
</g>
<defs>
<linearGradient id="paint0_linear_3805_6919" x1="416.054" y1="207.306" x2="198.381" y2="312.574" gradientUnits="userSpaceOnUse">
<stop stop-color="#FF8960"/>
<stop offset="1" stop-color="#FF62A5"/>
</linearGradient>
</defs>
</svg>
