<svg width="32" height="32" viewBox="0 0 32 32" fill="none" xmlns="http://www.w3.org/2000/svg">
<circle cx="16" cy="16" r="15.5" fill="#1E1E1E" stroke="#0E0E0E"/>
<path d="M10.12 24.7488C9.36 24.7488 8.64 24.4488 8.09 23.9088C6.97 22.7888 6.97 20.9788 8.09 19.8588L13.6 14.3488C13.1 12.4088 13.64 10.3188 15.06 8.89875C16.49 7.46875 18.59 6.90875 20.54 7.43875C20.8 7.50875 21 7.70875 21.07 7.96875C21.14 8.22875 21.07 8.49875 20.88 8.68875L18.43 11.1388L18.95 13.0488L20.86 13.5688L23.31 11.1188C23.5 10.9288 23.78 10.8588 24.03 10.9288C24.29 10.9988 24.49 11.1988 24.56 11.4588C25.09 13.4088 24.54 15.5088 23.1 16.9388C21.68 18.3588 19.59 18.8988 17.65 18.3988L12.14 23.9088C11.6 24.4488 10.88 24.7488 10.12 24.7488Z" fill="#F8F8F8"/>
</svg>
