<svg width="29" height="23" viewBox="0 0 29 23" fill="none" xmlns="http://www.w3.org/2000/svg">
<path d="M0.666016 19.0026H9.99935V21.6693H0.666016V19.0026ZM0.666016 9.66927H12.666V12.3359H0.666016V9.66927ZM0.666016 0.335938H27.3327V3.0026H0.666016V0.335938ZM25.5647 12.3693L27.106 11.8479L28.4393 14.1573L27.218 15.2306C27.3724 15.9594 27.3724 16.7125 27.218 17.4413L28.4393 18.5146L27.106 20.8239L25.5647 20.3026C25.0112 20.8011 24.3594 21.178 23.6513 21.4093L23.3327 23.0026H20.666L20.346 21.4079C19.6384 21.1765 18.9871 20.7996 18.434 20.3013L16.8927 20.8239L15.5593 18.5146L16.7807 17.4413C16.6263 16.7125 16.6263 15.9594 16.7807 15.2306L15.5593 14.1573L16.8927 11.8479L18.434 12.3693C18.9807 11.8759 19.6313 11.4959 20.3473 11.2626L20.666 9.66927H23.3327L23.6527 11.2639C24.3603 11.4953 25.0116 11.8723 25.5647 12.3706M21.9993 19.0026C22.7066 19.0026 23.3849 18.7217 23.885 18.2216C24.3851 17.7215 24.666 17.0432 24.666 16.3359C24.666 15.6287 24.3851 14.9504 23.885 14.4503C23.3849 13.9502 22.7066 13.6693 21.9993 13.6693C21.2921 13.6693 20.6138 13.9502 20.1137 14.4503C19.6136 14.9504 19.3327 15.6287 19.3327 16.3359C19.3327 17.0432 19.6136 17.7215 20.1137 18.2216C20.6138 18.7217 21.2921 19.0026 21.9993 19.0026Z" fill="#C9C9CA"/>
</svg>
