<svg width="24" height="24" viewBox="0 0 24 24" fill="none" xmlns="http://www.w3.org/2000/svg">
<g clip-path="url(#clip0_3432_2795)">
<path d="M3.29499 9.90622C3.29499 7.33737 4.65656 5.99397 7.24354 5.99397H19.4614V5.76704C19.4614 3.89714 18.5083 2.95312 16.6201 2.95312H2.85021C0.9531 2.95312 0 3.89714 0 5.76704V15.3253C0 17.1952 0.9531 18.1301 2.85021 18.1301H3.29499V9.90622ZM7.38879 22.5053H21.1498C23.0378 22.5053 24 21.5613 24 19.6914V10.0424C24 8.18153 23.0378 7.23751 21.1498 7.23751H7.38879C5.48259 7.23751 4.53857 8.17248 4.53857 10.0424V19.6914C4.53857 21.5613 5.48259 22.5053 7.38879 22.5053ZM10.8653 14.7715C9.70346 14.7715 8.75944 13.8275 8.75944 12.6657C8.75944 11.5129 9.70346 10.5598 10.8653 10.5598C12.0181 10.5598 12.9621 11.5129 12.9621 12.6657C12.9621 13.8275 12.0181 14.7715 10.8653 14.7715ZM7.27984 21.0439C6.4629 21.0439 6 20.5809 6 19.7549V19.0106L7.57941 17.5673C8.38727 16.8411 8.85021 16.3419 9.48561 16.3419C10.1391 16.3419 10.6656 16.8593 11.4917 17.5764L12.3449 18.3389L15.3222 15.6611C16.3116 14.7625 16.9743 14.1543 17.764 14.1543C18.5628 14.1543 19.2436 14.7443 20.2147 15.6611L22.5384 17.8669V19.7549C22.5384 20.5809 22.0665 21.0439 21.2496 21.0439H7.27984Z" fill="#5D5D60"/>
</g>
<defs>
<clipPath id="clip0_3432_2795">
<rect width="24" height="24" fill="white"/>
</clipPath>
</defs>
</svg>
