<svg width="4" height="14" viewBox="0 0 4 14" fill="none" xmlns="http://www.w3.org/2000/svg">
<path d="M1.7439 5.23256C2.09078 5.23256 2.42345 5.37038 2.66874 5.6157C2.91402 5.86103 3.05182 6.19376 3.05182 6.5407V12.6453C3.05182 12.9923 2.91402 13.325 2.66874 13.5703C2.42345 13.8157 2.09078 13.9535 1.7439 13.9535C1.39701 13.9535 1.06434 13.8157 0.819055 13.5703C0.573772 13.325 0.435974 12.9923 0.435974 12.6453V6.5407C0.435974 6.19376 0.573772 5.86103 0.819055 5.6157C1.06434 5.37038 1.39701 5.23256 1.7439 5.23256ZM1.7439 0C1.28139 0 0.83782 0.183762 0.510776 0.510861C0.183732 0.837959 0 1.2816 0 1.74419C0 2.20677 0.183732 2.65041 0.510776 2.97751C0.83782 3.30461 1.28139 3.48837 1.7439 3.48837H1.7561C2.21861 3.48837 2.66218 3.30461 2.98922 2.97751C3.31627 2.65041 3.5 2.20677 3.5 1.74419C3.5 1.2816 3.31627 0.837959 2.98922 0.510861C2.66218 0.183762 2.21861 0 1.7561 0L1.7439 0Z" fill="#C9C9CA"/>
</svg>
